# xmcd CD database file
#
# Track frame offsets:
#	150
#	16610
#	30144
#	45697
#	63680
#	79147
#	95672
#	111562
#	128795
#	143787
#	166347
#	183057
#	200242
#	212425
#	228562
#	242682
#	259292
#
# Disc length: 3766 seconds
#
# Revision: 18
# Processed by: cddbd v1.5.2PL0 Copyright (c) Steve Scherf et al.
# Submitted via: CDex 1.79
#
DISCID=ea0eb411
DTITLE=Tom Jones - Reload
DYEAR=1999
DGENRE=Pop
TTITLE0=Burning Down The House (with The Cardigans)
TTITLE1=Mama Told Me Not To Come (with Stereophonics)
TTITLE2=Are You Gonna Go My Way (with Robbie Williams)
TTITLE3=All Mine (with The Divine Comedy)
TTITLE4=Sunny Afternoon (with Space)
TTITLE5=I'm Left, You're Right, She's Gone (with James Dean Bradfield)
TTITLE6=Sexbomb (with Mousse T.)
TTITLE7=You Need Love Like I Do (with Heather Small)
TTITLE8=Looking Out My Window (with James Taylor Quartet)
TTITLE9=Sometimes We Cry (with Van Morrison)
TTITLE10=Lust For Life (with The Pretenders)
TTITLE11=Little Green Bag (with Barenaked Ladies)
TTITLE12=Ain't That A Lot Of Love (with Simply Red)
TTITLE13=She Drives Me Crazy (with Zucchero)
TTITLE14=Never Tear Us Apart (with Natalie Imbruglia)
TTITLE15=Baby, It's Cold Outside (with Cerys from Catatonia)
TTITLE16=Motherless Child (with Portishead)
EXTD=YEAR: 1999
EXTT0=
EXTT1=
EXTT2=
EXTT3=
EXTT4=
EXTT5=
EXTT6=
EXTT7=
EXTT8=
EXTT9=
EXTT10=
EXTT11=
EXTT12=
EXTT13=
EXTT14=
EXTT15=
EXTT16=
PLAYORDER=
